<?xml version="1.0" encoding="UTF-8" standalone="no"?>
<!-- Created with Inkscape (http://www.inkscape.org/) -->

<svg
   width="77.07962mm"
   height="88.59726mm"
   viewBox="0 0 77.07962 88.59726"
   version="1.1"
   id="svg5"
   xmlns="http://www.w3.org/2000/svg"
   xmlns:svg="http://www.w3.org/2000/svg">
  <defs
     id="defs2" />
  <g
     id="layer1"
     transform="translate(-67.777578,-53.41007)">
    <path
       style="fill:#ff5555;stroke-width:30.2362;stroke-linecap:round;stroke-linejoin:round;stroke-opacity:0.453441"
       id="path846"
       d="m 499.48872,481.10545 -97.24316,55.61516 -48.41912,-26.94616 -96.78571,-56.40746 -0.8735,-55.40527 0.45743,-112.02262 47.54562,-28.4591 97.24315,-55.61516 48.41912,26.94616 96.78572,56.40746 0.8735,55.40527 -0.45743,112.02262 z"
       transform="scale(0.26458333)" />
    <path
       style="fill:#9dac93;stroke-width:30.2362;stroke-linecap:round;stroke-linejoin:round;stroke-opacity:0.453441"
       id="path951"
       d="m 499.48872,481.10545 -97.24316,55.61516 -48.41912,-26.94616 -96.78571,-56.40746 -0.8735,-55.40527 0.45743,-112.02262 47.54562,-28.4591 97.24315,-55.61516 48.41912,26.94616 96.78572,56.40746 0.8735,55.40527 -0.45743,112.02262 z"
       transform="matrix(0.20867287,0,0,0.20867287,26.574641,27.567462)" />
    <path
       style="fill:#ffffff;stroke-width:30.2362;stroke-linecap:round;stroke-linejoin:round;stroke-opacity:0.453441"
       id="path1341"
       d="m 499.48872,481.10545 -97.24316,55.61516 -48.41912,-26.94616 -96.78571,-56.40746 -0.8735,-55.40527 0.45743,-112.02262 47.54562,-28.4591 97.24315,-55.61516 48.41912,26.94616 96.78572,56.40746 0.8735,55.40527 -0.45743,112.02262 z"
       transform="matrix(0.15854097,0,0,0.15854097,43.460448,39.642039)" />
  </g>
</svg>
